<?xml version="1.0" encoding="utf-8"?>
<!-- Generator: Adobe Illustrator 27.7.0, SVG Export Plug-In . SVG Version: 6.00 Build 0)  -->
<svg version="1.1" id="Layer_1" xmlns="http://www.w3.org/2000/svg" xmlns:xlink="http://www.w3.org/1999/xlink" x="0px" y="0px"
	 viewBox="0 0 226.4 44.3" style="enable-background:new 0 0 226.4 44.3;" xml:space="preserve">
<style type="text/css">
	.st0{fill-rule:evenodd;clip-rule:evenodd;fill:#26A9E1;}
	.st1{fill:#26A9E1;}
	.st2{fill-rule:evenodd;clip-rule:evenodd;fill:#2BA9E0;}
	.st3{fill-rule:evenodd;clip-rule:evenodd;fill:#000;}
	.st4{fill-rule:evenodd;clip-rule:evenodd;fill:#07506A;}
</style>
<path class="st0" d="M180.5,12.9c0-0.2-0.1-0.5-0.3-0.6c-0.2-0.2-0.4-0.3-0.6-0.3s-0.5,0.1-0.6,0.3c-0.2,0.2-0.3,0.4-0.3,0.6v19.5
	c0,0.2,0.1,0.5,0.3,0.6c0.2,0.2,0.4,0.3,0.6,0.3s0.5-0.1,0.6-0.3c0.2-0.2,0.3-0.4,0.3-0.6V12.9z"/>
<path class="st0" d="M142.9,32.4c0,0.2,0.1,0.5,0.2,0.6c0.2,0.2,0.4,0.2,0.6,0.2s0.5-0.1,0.6-0.2c0.2-0.2,0.2-0.4,0.2-0.6V13.7h6.8
	c0.2,0,0.5-0.1,0.6-0.2c0.2-0.2,0.3-0.4,0.3-0.6s-0.1-0.5-0.3-0.6c-0.2-0.2-0.4-0.3-0.6-0.3H136c-0.2,0-0.5,0.1-0.6,0.3
	c-0.2,0.2-0.2,0.4-0.2,0.6s0.1,0.5,0.2,0.6c0.2,0.2,0.4,0.2,0.6,0.2h6.8L142.9,32.4L142.9,32.4z"/>
<path class="st1" d="M225.5,33.3h-13.2c-1.2,0-1.2-1.8,0-1.8h13.2C226.7,31.5,226.7,33.3,225.5,33.3z M225.5,13.7h-13.2
	c-1.2,0-1.2-1.8,0-1.8h13.2C226.7,11.9,226.7,13.7,225.5,13.7z M225.5,23.5h-13.2c-1.2,0-1.2-1.8,0-1.8h13.2
	C226.7,21.7,226.7,23.5,225.5,23.5z"/>
<path class="st1" d="M161.7,12.6v14.9c0,2.3,1.9,4.2,4.2,4.2h4c1.2,0,1.2,1.7,0,1.7h-4c-3.3,0-5.9-2.7-5.9-5.9V12.6
	C160,11.5,161.7,11.5,161.7,12.6z"/>
<path class="st1" d="M188.9,32.6V12.7c0-0.9,0.6-1.2,1.4-0.7L204,30V12.6c0-1.2,1.8-1.2,1.8,0v19.9c0,0.9-0.6,1.2-1.4,0.7
	l-13.7-17.6v17C190.7,33.8,188.9,33.8,188.9,32.6L188.9,32.6z"/>
<path class="st1" d="M94.4,11.8h7.5c3.3,0,5.9,2.7,5.9,5.9s-2.7,6-5.9,6h-6.5v8.8c0,1.2-1.8,1.2-1.8,0v-9.7c0-0.5,0.4-0.9,0.9-0.9
	h7.4c2.3,0,4.2-1.9,4.2-4.2s-1.9-4.2-4.2-4.2h-7.5C93.2,13.5,93.2,11.8,94.4,11.8L94.4,11.8z"/>
<path class="st1" d="M81.2,23.3h-0.5c-3.2,0-5.8-2.6-5.8-5.8s2.6-5.8,5.8-5.8h6.7c1.1,0,1.1,1.7,0,1.7h-6.7c-2.3,0-4.1,1.8-4.1,4.1
	s1.8,4.1,4.1,4.1h2.6c3.2,0,5.8,2.6,5.8,5.8s-2.6,5.8-5.8,5.8h-6.7c-1.1,0-1.1-1.7,0-1.7h6.7c2.3,0,4.1-1.8,4.1-4.1
	s-1.8-4.1-4.1-4.1C83.3,23.3,81.2,23.3,81.2,23.3z"/>
<path class="st2" d="M43.6,27.1l4.5-3.7l3.5-2.9c0.2,0.1,0.4,0.1,0.7,0.1c1.2,0,2.1-1,2.1-2.1c0-0.1,0-0.2,0-0.3
	c-0.1-0.8-0.6-1.4-1.3-1.7c-0.3-0.1-0.5-0.2-0.8-0.2c-1.2,0-2.1,1-2.1,2.1c0,0.1,0,0.3,0,0.4L42.6,25c0.6,0.4,1,1.1,1,1.8
	C43.6,27.1,43.6,27.1,43.6,27.1 M39.3,27l-3.8,1.8L28,32.3c0.4,0.3,0.6,0.8,0.7,1.3c0,0.1,0,0.2,0,0.3s0,0.2,0,0.4l6.7-3.1l5-2.3
	c0.1,0,0.2,0.1,0.3,0.1c-0.4-0.2-0.8-0.5-1-1c0.4,0.6,1,1.1,1.8,1.1c1.2,0,2.1-1,2.1-2.1c0-0.7-0.4-1.4-1-1.8l0,0
	c-0.1,0-0.2-0.1-0.2-0.1l0,0l0,0l0,0l0,0l0,0l0,0l0,0l0,0l0,0l0,0l0,0l0,0l0,0l0,0l0,0l0,0l0,0l0,0l0,0l0,0l0,0l0,0l0,0l0,0
	c-0.1,0-0.3-0.1-0.4-0.1l0,0l0,0l0,0l0,0l0,0l0,0l0,0l0,0l0,0l0,0l0,0l0,0l0,0l0,0l0,0l0,0l0,0l0,0l0,0l0,0l0,0l0,0l0,0l0,0l0,0l0,0
	l0,0l0,0l0,0l0,0l0,0l0,0l0,0l0,0l0,0l0,0l0,0l0,0l0,0l0,0l0,0l0,0l0,0l0,0l0,0l0,0l0,0l0,0l0,0l0,0l0,0l0,0l0,0l0,0l0,0l0,0l0,0
	l0,0l0,0l0,0l0,0l0,0l0,0l0,0l0,0l0,0l0,0l0,0l0,0l0,0l0,0c-0.7,0.4-1.1,1-1.1,1.8L39.3,27z"/>
<path class="st3" d="M40.2,14.4v10.3c0.4-0.2,0.8-0.3,1.2-0.3s0.8,0.1,1.1,0.2l0,0l0,0L47,21v-6.6H40.2L40.2,14.4z M16.2,28.1v12.8
	L23,35v-7C23,28.1,16.2,28.1,16.2,28.1z M28.2,21.9v9.9l6.8-3.2v-6.7C35,21.9,28.2,21.9,28.2,21.9z"/>
<path class="st2" d="M22.6,20.1c-0.3-2.1-1.1-5.1-2.4-6.9V13c1.4-6,6.7-10.2,12.9-10.2S44.5,7.1,45.9,13l0.2,1h1.3v1.3l1.4-0.1
	c0.4,0,0.8-0.1,1.1-0.1c2.8,0,5.3,0.9,7.5,2.3c3.5,2.4,5.7,6.4,5.7,10.9c0,0.8-0.1,1.5-0.2,2.3c-1,5.9-6,10.5-12.1,10.9H20.7
	l-3.4,2.8H51c8.4-0.5,15.1-7.5,15.1-16S58.9,12.2,50,12.2c-0.5,0-0.9,0-1.4,0.1C47,5.3,40.6,0,33,0S19,5.3,17.4,12.3
	c-0.5,0-0.9-0.1-1.4-0.1c-8.8,0-16,7.2-16,16.1C0,35.8,5.1,42,11.9,43.8l0,0c0.4,0.1,0.7,0.2,1.1,0.2c0.7,0.1,1.3,0.2,2,0.2h1
	l3.4-2.8l6.5-5.5c0.2,0.1,0.4,0.1,0.6,0.1c0.3,0,0.6-0.1,0.8-0.2c0.4-0.2,0.7-0.5,1-0.8c0.2-0.3,0.3-0.7,0.3-1.2c0-0.1,0-0.2,0-0.3
	c-0.1-0.5-0.3-1-0.7-1.3l-0.1-0.1c-0.1-0.1-0.3-0.2-0.4-0.2c-0.2-0.1-0.5-0.2-0.8-0.2c-0.1,0-0.3,0-0.4,0c-0.7,0.1-1.3,0.7-1.6,1.3
	c-0.1,0.2-0.1,0.5-0.1,0.8c0,0.2,0,0.3,0.1,0.5l-1,0.8l-7.4,6.3l-0.4,0.3v-0.3h-0.6c-0.1,0-0.3,0-0.4,0l0,0
	C8.1,40.8,3,35.3,2.9,28.7c0-0.1,0-0.2,0-0.4c0-4.1,1.9-7.8,4.8-10.2c2.3-1.9,5.2-3,8.4-3c0.4,0,0.8,0,1.1,0.1
	C19.8,15.5,21.5,17.6,22.6,20.1"/>
<path class="st4" d="M51.6,20.6c-0.5-0.2-0.9-0.5-1.2-1c-0.1-0.2-0.2-0.5-0.2-0.8c0,0,0,0.1,0,0.2l0,0l0,0c0,0.4,0.1,0.7,0.2,1
	c0.2,0.4,0.5,0.6,0.8,0.9L51.6,20.6L51.6,20.6z"/>
<path class="st4" d="M40.6,29c-0.8-0.3-1.3-1.1-1.3-1.9c0-0.1,0-0.2,0-0.3v0.1c0,0,0,0.1,0,0.2l0,0c0,0.1,0,0.3,0,0.5
	c0,0.6,0.3,1.2,0.7,1.6l0.4-0.2C40.4,28.9,40.5,29,40.6,29"/>
<path class="st4" d="M26.5,36.1c-1.1,0-1.9-0.8-2.1-1.8l0,0c0,0,0,0.1,0,0.2l0,0l0,0c0,0.8,0.4,1.5,1.1,1.8l0.4-0.3
	C26.1,36,26.3,36.1,26.5,36.1c0.3,0,0.6-0.1,0.8-0.2c0.4-0.2,0.7-0.5,1-0.8c0.1-0.2,0.2-0.5,0.3-0.8v-0.1l0,0
	C28.5,35.3,27.6,36.1,26.5,36.1"/>
<path class="st2" d="M122.4,12.7c2.5,0,4.6,0.9,6.4,2.7s2.7,3.9,2.7,6.4s-0.9,4.6-2.7,6.4s-3.9,2.6-6.4,2.6s-4.6-0.9-6.4-2.6
	c-1.8-1.8-2.7-3.9-2.7-6.4s0.9-4.6,2.7-6.4C117.7,13.6,119.9,12.7,122.4,12.7z M122.4,32.6c3,0,5.6-1.1,7.7-3.2s3.2-4.7,3.2-7.7
	s-1.1-5.6-3.2-7.7s-4.7-3.2-7.7-3.2s-5.6,1.1-7.7,3.2s-3.2,4.7-3.2,7.7s1.1,5.6,3.2,7.7S119.4,32.6,122.4,32.6z"/>
</svg>
